# xmcd
#
# Track frame offsets:
#	150
#	16156
#	27801
#	41648
#	60381
#	74402
#	89375
#	101339
#	112675
#	127949
#	142577
#	157985
#	172406
#	185839
#	205447
#	219084
#	234997
#	248917
#	263939
#	276022
#	293344
#
# Disc length: 4085 seconds
#
# Revision: 1
# Processed by: cddbd v1.5.1PL0 Copyright (c) Steve Scherf et al.
# Submitted via: EasyCDDAExtractor 6.2.0.3
#
DISCID=1a0ff315
DTITLE=Modas De Viola Interp. Por Gúchos
DYEAR=1900
DGENRE=
TTITLE0=Chama Campeira - Por Onde Andei
TTITLE1=Canto Da Terra - Nossos Devaneio
TTITLE2=Tradição - Casa Noturna
TTITLE3=Alma Serrana - Seu Amor Ainda É Tudo
TTITLE4=Grupo Caranda´- Paixão Tirana
TTITLE5=Chama Campeira - Outro Vício
TTITLE6=Estilo Nativo - Último Pedido
TTITLE7=Zíngaro - Espinhos Na Cama
TTITLE8=Som Do Mato - Blusa Vermelha
TTITLE9=Tradição - Vestido De Seda
TTITLE10=Canto Da Terra - Saudade Morena
TTITLE11=Zíngaro - Sublime Renúncia
TTITLE12=Alma Serrana - Contra-Senso
TTITLE13=Tradição - Som De Cristal
TTITLE14=Som Do Mato - Você Dentro Do Peito
TTITLE15=Marco Aurélio - Desventura
TTITLE16=Zíngaro - 30 Dias De Saudade
TTITLE17=Canto Da Terra - O Carro E A Faculdade
TTITLE18=Alma Serrana - Sem Palavras
TTITLE19=Tradição - Piscina
TTITLE20=Canto Da Terra - Mulher Ideal
EXTD=
EXTT0=
EXTT1=
EXTT2=
EXTT3=
EXTT4=
EXTT5=
EXTT6=
EXTT7=
EXTT8=
EXTT9=
EXTT10=
EXTT11=
EXTT12=
EXTT13=
EXTT14=
EXTT15=
EXTT16=
EXTT17=
EXTT18=
EXTT19=
EXTT20=
PLAYORDER=
